<?xml version="1.0" encoding="UTF-8"?>
<svg version="1.1" xmlns="http://www.w3.org/2000/svg" width="649" height="649">
<path d="M0 0 C214.17 0 428.34 0 649 0 C649 214.17 649 428.34 649 649 C434.83 649 220.66 649 0 649 C0 434.83 0 220.66 0 0 Z " fill="#030612" transform="translate(0,0)"/>
<path d="M0 0 C1.08054026 1.19875905 2.154214 2.40372692 3.22265625 3.61328125 C7.32292125 7.81563674 10.98922199 8.19854509 16.6875 8.4375 C17.59653076 8.49695801 18.50556152 8.55641602 19.44213867 8.61767578 C22.2944422 8.78639875 25.14455609 8.8990992 28 9 C29.38493652 9.06356689 29.38493652 9.06356689 30.79785156 9.12841797 C33.46962933 9.2431131 36.1388996 9.31876942 38.8125 9.375 C40.01942505 9.41451782 40.01942505 9.41451782 41.25073242 9.45483398 C46.38982657 9.46828852 49.76150149 8.41871527 54.24780273 5.94311523 C59.27357514 3.23800742 65.19618027 3.81660785 70.75 3.8125 C71.6059375 3.80025391 72.461875 3.78800781 73.34375 3.77539062 C79.08793174 3.76233567 84.48999408 4.29290744 90 6 C90.33 6.33 90.66 6.66 91 7 C93.90103034 7.02108745 96.78775815 6.9915015 99.6875 6.9375 C122.63172295 6.77720035 149.71507249 12.05787819 166.81689453 28.58056641 C175.42009889 37.31488991 183.04070503 46.91937365 190 57 C190.70576172 57.99193359 190.70576172 57.99193359 191.42578125 59.00390625 C194.74526326 63.92660558 196.71623862 69.17012786 198.69140625 74.75390625 C199.88680382 77.71920591 201.30694077 80.38223153 202.9230957 83.13549805 C210.20034968 95.73499671 212.93209466 105.97524146 211.3046875 120.48828125 C210.88590476 124.53789378 211.6258926 127.14740999 213 131 C213.59034368 137.48034565 212.6464694 143.91214128 211.6875 150.3125 C211.48012207 151.70650024 211.48012207 151.70650024 211.26855469 153.12866211 C207.83913591 175.47261442 199.02851915 196.20272266 189.890625 216.74609375 C181.6123132 235.55815664 176.62438349 254.70812351 176.62939453 275.36865234 C176.6250802 277.33838573 176.58823696 279.30796179 176.55078125 281.27734375 C176.52711103 289.34888724 177.41678675 296.75365543 179.0234375 304.6640625 C181.26041601 315.90462124 181.40193615 326.58168852 181 338 C180.94276851 340.06525287 180.88606221 342.13052035 180.82983398 344.19580078 C180.30107766 361.73722357 179.28904468 379.25953196 178.19366455 396.7734375 C178.06261725 398.87312139 177.93375092 400.97293229 177.80493164 403.07275391 C177.56176606 407.00515336 177.30018027 410.93619742 177.03515625 414.8671875 C176.96112076 416.05238983 176.88708527 417.23759216 176.81080627 418.45870972 C176.69574989 420.08572311 176.69574989 420.08572311 176.57836914 421.74560547 C176.48296593 423.16605667 176.48296593 423.16605667 176.38563538 424.61520386 C176 427 176 427 174 430 C171 430.3125 171 430.3125 168 430 C165.57612298 427.57612298 165.74262839 426.30839675 165.72241211 422.99829102 C165.73606812 421.91632446 165.73606812 421.91632446 165.75 420.8125 C165.75688843 419.66575806 165.75688843 419.66575806 165.76391602 418.49584961 C165.96646041 404.52565183 166.86060962 390.38463936 168.25146484 376.48739624 C168.89810598 369.98212006 169.14693447 363.56670044 169.1328125 357.03125 C169.13376923 356.02968872 169.13472595 355.02812744 169.13571167 353.99621582 C169.13638697 351.89542579 169.13457849 349.79463359 169.13037109 347.69384766 C169.1250136 344.5080896 169.13033841 341.3224725 169.13671875 338.13671875 C169.13605785 336.08072886 169.13477645 334.02473906 169.1328125 331.96875 C169.13584885 330.56357117 169.13584885 330.56357117 169.13894653 329.13000488 C169.22254357 317.90307094 169.22254357 317.90307094 167 307 C165.74631804 298.45307298 165.78200246 289.77087128 165.75976562 281.15039062 C165.75010454 278.89935696 165.71899375 276.64925675 165.6875 274.3984375 C165.51649916 250.6914439 172.44349193 229.52810681 181.73242188 207.94995117 C195.06423117 177.48053967 195.06423117 177.48053967 201 145 C201.07927734 143.90751953 201.07927734 143.90751953 201.16015625 142.79296875 C201.87918231 124.44217323 196.30216561 109.57558756 184 96 C180.09143337 92.03095265 175.9384322 88.59549736 171.31640625 85.4921875 C170.67654785 85.05777344 170.03668945 84.62335938 169.37744141 84.17578125 C168.1050429 83.32260491 166.81966963 82.48840347 165.52099609 81.67578125 C163.74609375 80.4921875 163.74609375 80.4921875 161 78 C160.47265625 74.8203125 160.47265625 74.8203125 161 72 C161.66 71.34 162.32 70.68 163 70 C168.71652789 70.15244074 172.16127667 72.06473195 176.4375 75.625 C176.99953125 76.07576904 177.5615625 76.52653809 178.140625 76.9909668 C179.77491014 78.31083989 181.39051109 79.65005604 183 81 C184.20849609 82.01126953 184.20849609 82.01126953 185.44140625 83.04296875 C189.12650811 86.21061797 192.57773544 89.54843523 196 93 C195.49210937 92.07960938 194.98421875 91.15921875 194.4609375 90.2109375 C190.96566287 83.80321845 187.70237878 77.47330748 185 70.6875 C182.27375457 64.12677929 178.63627994 59.31675156 174 54 C172.86605493 52.52767952 171.74086523 51.04856993 170.625 49.5625 C169.42112731 48.03813324 168.21249898 46.51751432 167 45 C166.30777344 44.10023438 165.61554688 43.20046875 164.90234375 42.2734375 C158.12383978 34.0577549 150.63990432 30.15009856 141 26 C139.26169922 25.21302734 139.26169922 25.21302734 137.48828125 24.41015625 C133.83853626 22.93472742 130.19238395 21.85887253 126.375 20.9375 C125.68857422 20.76831055 125.00214844 20.59912109 124.29492188 20.42480469 C117.92085022 18.89749943 111.49909562 17.84577272 105 17 C105.38671875 17.52207031 105.7734375 18.04414063 106.171875 18.58203125 C115.89896531 32.32997325 120.24760861 51.37496179 117.49609375 68.0546875 C115.24460623 78.16708285 111.47145981 87.60151783 103 94 C99.75982102 95.90658419 96.45295335 97.51778369 93 99 C92.18660156 99.36738281 91.37320312 99.73476562 90.53515625 100.11328125 C85.03689353 102.03640242 79.10688541 101.95016401 73.8125 99.5625 C57.39829956 84.6073396 48.70208608 63.95480905 47 42 C46.71148213 34.66653315 46.79861046 27.33471035 47 20 C46.26297852 20.0103125 45.52595703 20.020625 44.76660156 20.03125 C38.28813408 20.10788991 31.84263576 19.90341259 25.375 19.5625 C24.58109863 19.52326416 23.78719727 19.48402832 22.96923828 19.44360352 C17.24204663 19.12102332 17.24204663 19.12102332 15 18 C15.27714844 18.60328125 15.55429687 19.2065625 15.83984375 19.828125 C16.20207031 20.62734375 16.56429687 21.4265625 16.9375 22.25 C17.29714844 23.03890625 17.65679687 23.8278125 18.02734375 24.640625 C22.97193992 36.63474583 20.19408133 52.09519199 16 64 C11.67603777 73.84074163 3.97198606 85.28445722 -6 90 C-9.23891197 90.91320761 -12.50737419 91.56246885 -15.8125 92.1875 C-16.67681641 92.36474609 -17.54113281 92.54199219 -18.43164062 92.72460938 C-28.72826199 94.73730744 -38.26990091 94.73785387 -47.6796875 89.51171875 C-60.17021674 80.64685985 -64.84372854 63.74273882 -67.50048828 49.27441406 C-69.17350128 39.13945013 -70.21115702 29.2812478 -70 19 C-81.44326827 20.8167558 -92.81313681 22.84451122 -104.13452148 25.31469727 C-105.68072372 25.64891823 -107.22863615 25.97531544 -108.77807617 26.29418945 C-124.01299491 29.43093079 -137.45503275 35.05466109 -148 47 C-149.59243905 50.42520016 -149.59243905 50.42520016 -150.6875 54.1875 C-151.08324219 55.41855469 -151.47898438 56.64960938 -151.88671875 57.91796875 C-156.34597242 73.58624367 -159.72458361 95.6406612 -153 111 C-149.76989937 116.34284244 -145.670331 120.95338683 -141.56542969 125.63671875 C-138 129.78759249 -138 129.78759249 -138 132 C-137.34 132 -136.68 132 -136 132 C-131.41874151 136.92485287 -131.41874151 136.92485287 -130.1328125 140.2265625 C-128.30938324 144.69082034 -125.64176447 148.64940809 -123.1015625 152.73632812 C-120 157.7965072 -120 157.7965072 -120 160 C-119.01 160.33 -118.02 160.66 -117 161 C-116.95101562 162.12535156 -116.90203125 163.25070312 -116.8515625 164.41015625 C-116.50544492 171.69461245 -116.10315548 178.85362355 -114.9375 186.0625 C-112.06722253 206.37025265 -113.26355179 228.78359037 -116.47485352 248.98754883 C-117.34357105 254.92176237 -117.57165123 260.92894285 -117.9375 266.91015625 C-118.02316488 268.2823555 -118.10902492 269.65454258 -118.19506836 271.02671814 C-118.37497434 273.90548246 -118.55295985 276.78435696 -118.72949219 279.66333008 C-118.95158165 283.28386974 -119.17770068 286.90414289 -119.40518188 290.52434731 C-120.2827489 304.51144677 -121.15965002 318.4959283 -121.65844727 332.50294495 C-121.68994873 333.31206833 -121.7214502 334.12119171 -121.75390625 334.95483398 C-121.77783447 335.64592758 -121.8017627 336.33702118 -121.82641602 337.04905701 C-122.01044339 339.11737523 -122.4722834 340.99475128 -123 343 C-123.15338778 344.64565137 -123.26979929 346.29495726 -123.359375 347.9453125 C-124.27437786 362.63478531 -126.39700105 376.71432672 -129.41699219 391.11083984 C-129.94992887 393.75186695 -130.41971048 396.39162295 -130.8515625 399.05078125 C-131.03634155 400.1644104 -131.03634155 400.1644104 -131.22485352 401.30053711 C-131.53511374 403.20674182 -131.83262993 405.11500931 -132.12890625 407.0234375 C-133.11893881 410.40641872 -134.2289954 411.85949167 -137 414 C-140.01811422 413.82246387 -140.83735215 413.16264785 -143 411 C-143.84872918 404.90157429 -142.57221409 398.86982575 -141.25 392.9375 C-139.65827024 385.35421863 -138.18451467 377.76237498 -136.875 370.125 C-136.71676758 369.24320068 -136.55853516 368.36140137 -136.39550781 367.45288086 C-133.3880978 349.64958101 -132.65820044 331.49105804 -131.73849487 313.48745728 C-130.82695478 295.74838446 -129.81348456 278.0220014 -128.4375 260.3125 C-128.37942169 259.55454132 -128.32134338 258.79658264 -128.26150513 258.01565552 C-127.68687395 250.57204874 -127.02933849 243.1481447 -126.19917297 235.72839355 C-125.25314437 227.23340833 -124.67688178 218.87121407 -124.75 210.3125 C-124.75688843 208.58543823 -124.75688843 208.58543823 -124.76391602 206.82348633 C-124.84426856 199.25597902 -125.33990577 191.93425857 -126.53125 184.46484375 C-127 181 -127 181 -126.96875 177.62890625 C-126.79467106 158.80662048 -141.95991956 141.14062047 -154.53710938 128.22290039 C-157.5574899 125.18185304 -160.42795498 122.38136335 -164 120 C-164.56036863 117.5771235 -164.91980393 115.3723369 -165.16796875 112.9140625 C-165.28702827 111.84679428 -165.28702827 111.84679428 -165.40849304 110.75796509 C-166.14048958 103.66480049 -166.33821629 96.58964809 -166.31567383 89.46289062 C-166.31248931 87.36797037 -166.33620478 85.27443775 -166.36132812 83.1796875 C-166.40380983 74.14601563 -165.30520863 65.76218454 -163 57 C-162.79592529 56.21302734 -162.59185059 55.42605469 -162.3815918 54.61523438 C-158.28593879 39.78979572 -149.96738102 31.4436968 -136.77148438 23.69067383 C-130.39429087 20.28733745 -124.03273792 18.48558696 -117 16.9375 C-115.91146729 16.68782471 -114.82293457 16.43814941 -113.70141602 16.1809082 C-111.50554877 15.67925847 -109.30837194 15.18330335 -107.10986328 14.69335938 C-104.28741444 14.06408047 -101.46937816 13.41863317 -98.65234375 12.765625 C-97.08092886 12.40537782 -95.50932749 12.04594266 -93.9375 11.6875 C-93.24333984 11.52822021 -92.54917969 11.36894043 -91.83398438 11.20483398 C-85.41855047 9.77926928 -79.08702806 8.8460135 -72.5 8.9375 C-71.6440625 8.94652344 -70.788125 8.95554688 -69.90625 8.96484375 C-68.96265625 8.98224609 -68.96265625 8.98224609 -68 9 C-67.73445313 8.36835938 -67.46890625 7.73671875 -67.1953125 7.0859375 C-65.64018448 4.37208665 -63.82094104 3.98265953 -60.984375 2.91015625 C-58.74355893 1.88238038 -57.05013863 0.59876063 -55.125 -0.9375 C-39.05149197 -13.45988417 -16.18301211 -11.31875413 0 0 Z " fill="#4CC7B3" transform="translate(292,121)"/>
<path d="M0 0 C7.10161615 -0.41243506 16.43112734 1.06132847 21.91015625 5.82421875 C22.27882813 6.27410156 22.6475 6.72398437 23.02734375 7.1875 C22.39828125 7.66058594 21.76921875 8.13367188 21.12109375 8.62109375 C10.35188667 16.94127934 0.04240586 27.17766792 -2.51171875 41.1328125 C-2.66564524 45.82057368 -2.22901272 49.59427907 1.02734375 53.1875 C5.26931283 55.85388057 9.31839727 55.13235082 14.02734375 54.1875 C16.76366637 53.32950336 19.35269607 52.24169627 21.96484375 51.0625 C22.65852051 50.75481689 23.35219727 50.44713379 24.06689453 50.13012695 C30.5809725 47.13036284 35.95765929 43.25718446 41.02734375 38.1875 C41.44398601 52.20841773 37.1478889 63.72396195 28.02734375 74.1875 C20.2636009 81.64282019 10.41621971 82.42247071 0.02734375 83.1875 C-6.44776322 83.00894117 -10.64063278 80.62323659 -15.2578125 76.15234375 C-24.80565671 65.2125587 -25.85670573 47.96021734 -27.6472168 34.1418457 C-27.95480701 31.98087666 -27.95480701 31.98087666 -28.97265625 29.1875 C-29.43311822 22.3956859 -28.72585554 16.87372794 -24.56640625 11.3046875 C-17.77258064 3.9019813 -9.79634069 0.93113733 0 0 Z " fill="#030713" transform="translate(260.97265625,121.8125)"/>
<path d="M0 0 C3.73143047 1.40541469 5.34146742 3.93850084 7.48828125 7.1328125 C7.91987549 7.75373779 8.35146973 8.37466309 8.79614258 9.0144043 C12.2235314 14.05980863 15.06777279 19.33221157 17.85571289 24.74829102 C20.61662795 30.05454378 23.78785889 34.48800984 27.67578125 39.0078125 C28.61790802 40.13220917 29.55924847 41.25726495 30.5 42.3828125 C46.06573692 60.89649324 65.68533643 77.42211601 90.79443359 80.24609375 C95.77937347 80.56411224 100.69854199 80.35385602 105.67578125 80.0078125 C106.85140625 79.94722656 108.02703125 79.88664062 109.23828125 79.82421875 C137.68055929 77.25298603 163.37802204 61.35011088 186.67578125 46.0078125 C188.06213695 45.10881489 189.44884519 44.21036066 190.8359375 43.3125 C208.46581677 32.12159007 208.46581677 32.12159007 221.86328125 16.5078125 C223.67578125 14.0078125 223.67578125 14.0078125 226.30078125 13.5078125 C228.67578125 14.0078125 228.67578125 14.0078125 230.67578125 16.0078125 C231.27774166 19.16810468 231.14700094 21.20248386 229.5078125 24.00390625 C226.55764294 28.01583349 223.32041163 31.61167964 219.67578125 35.0078125 C218.69931641 35.97460938 218.69931641 35.97460938 217.703125 36.9609375 C211.57617681 42.81171273 204.98429404 47.13868284 197.77734375 51.4921875 C194.63241319 53.39581353 191.59643108 55.40665833 188.58032227 57.5065918 C165.44429954 73.5238383 137.43043786 89.72412247 108.67578125 91.0078125 C107.98484375 91.04567871 107.29390625 91.08354492 106.58203125 91.12255859 C82.96584868 92.28860761 58.60737478 85.03959832 40.7578125 68.9609375 C40.07074219 68.31640625 39.38367188 67.671875 38.67578125 67.0078125 C37.59851851 66.14600231 36.51611137 65.29052965 35.42578125 64.4453125 C31.81185198 61.24205701 28.75843329 57.71744462 25.67578125 54.0078125 C25.04671875 53.255 24.41765625 52.5021875 23.76953125 51.7265625 C15.24500126 41.30769252 8.14121303 30.40773143 1.69921875 18.625 C0.11980707 15.75132767 -1.59871841 13.02960858 -3.44921875 10.3203125 C-5.32421875 7.0078125 -5.32421875 7.0078125 -5.26171875 4.1328125 C-3.98594817 1.24106585 -3.27480924 0.01100776 0 0 Z " fill="#4BC5B1" transform="translate(191.32421875,224.9921875)"/>
<path d="M0 0 C1.07229858 0.01123901 1.07229858 0.01123901 2.16625977 0.02270508 C11.68110911 0.21715171 20.44768851 2.36843714 27.27734375 9.40234375 C30.45697284 13.31023144 32.47412404 16.18503066 33.1875 21.25 C32.37925781 21.33636719 31.57101562 21.42273438 30.73828125 21.51171875 C24.12308093 22.33584225 24.12308093 22.33584225 18.25 25.25 C17.2290625 26.735 17.2290625 26.735 16.1875 28.25 C15.72601563 28.89453125 15.26453125 29.5390625 14.7890625 30.203125 C9.8264911 38.26387634 9.63695796 48.19824291 11.63574219 57.28857422 C13.49363383 63.97464927 16.2323309 69.61303891 20.1875 75.25 C16.77192978 77.35188936 14.16577 77.7371351 10.1875 77.25 C-0.58599278 71.1726451 -6.16021992 55.9854079 -9.5625 44.75 C-9.77342285 44.06220459 -9.9843457 43.37440918 -10.20166016 42.66577148 C-12.94723857 33.10805039 -12.95301909 23.50341693 -12.875 13.625 C-12.87048828 12.52542969 -12.86597656 11.42585937 -12.86132812 10.29296875 C-12.84967139 7.61191997 -12.83331017 4.93099068 -12.8125 2.25 C-8.44425786 0.35620177 -4.72083547 -0.0645179 0 0 Z " fill="#030712" transform="translate(361.8125,134.75)"/>
<path d="M0 0 C3.24441001 1.0382112 4.07808785 2.12392889 5.9296875 5.0625 C6.59509887 6.36647667 7.2424515 7.67976902 7.875 9 C8.21942139 9.7113208 8.56384277 10.4226416 8.91870117 11.15551758 C18.96528658 32.49840263 21.56814705 54.10540708 21.14453125 77.5 C21.12143222 79.39590068 21.09954543 81.29181646 21.07878113 83.18774414 C21.03222453 87.13074803 20.97496637 91.07338836 20.90893555 95.01611328 C20.82618185 99.97617585 20.76483824 104.93620525 20.71060371 109.89665222 C20.02885058 170.94229884 20.02885058 170.94229884 17 177 C15.0625 176.625 15.0625 176.625 13 176 C11.30113145 172.6022629 12.14710159 168.77439528 12.375 165.0625 C12.41882813 164.25748047 12.46265625 163.45246094 12.5078125 162.62304688 C12.88619384 155.99611808 12.88619384 155.99611808 13.24594116 152.84733582 C14.38981659 142.75600559 14.18425939 132.594109 14.203125 122.453125 C14.20595238 121.42280907 14.20877975 120.39249313 14.21169281 119.33095551 C14.22661473 113.88013967 14.23588882 108.42934983 14.24023438 102.97851562 C14.24571414 97.38976155 14.26975221 91.80125166 14.29820633 86.21257401 C14.31695184 81.87647838 14.32204457 77.54044026 14.32357025 73.20430756 C14.32656957 71.14570529 14.33450429 69.08710337 14.34775543 67.02854156 C14.43374969 52.64536578 13.94139033 39.05193455 8.30078125 25.5859375 C7.81416016 24.39355469 7.32753906 23.20117188 6.82617188 21.97265625 C6.32666016 20.78542969 5.82714844 19.59820312 5.3125 18.375 C4.297861 15.94942344 3.29675351 13.51935438 2.30078125 11.0859375 C1.85903564 10.0345459 1.41729004 8.9831543 0.9621582 7.89990234 C0.01878725 5.05662394 -0.20134707 2.96790365 0 0 Z " fill="#4AC0AD" transform="translate(318,383)"/>
<path d="M0 0 C1.32 0 2.64 0 4 0 C3.6753418 4.00411782 2.55866735 7.07110172 0.8125 10.625 C-11.85296056 37.84303846 -15.55802548 69.56194151 -19.30200195 99.04708862 C-20.27814235 106.71484035 -21.29090886 114.37438806 -22.484375 122.01171875 C-22.59170959 122.74679153 -22.69904419 123.48186432 -22.80963135 124.23921204 C-23.48711902 128.41022883 -24.40017003 131.63225581 -27 135 C-27.99 135.33 -28.98 135.66 -30 136 C-30.17992362 130.09233936 -29.48348414 124.49728828 -28.609375 118.66015625 C-28.46480362 117.66886719 -28.32023224 116.67757812 -28.17127991 115.65625 C-27.70299287 112.45749989 -27.22701369 109.25995952 -26.75 106.0625 C-26.42529286 103.86711817 -26.10066732 101.67172427 -25.77612305 99.47631836 C-13.06672235 13.80505483 -13.06672235 13.80505483 0 0 Z " fill="#49BFAC" transform="translate(432,400)"/>
<path d="M0 0 C3 1 3 1 4.04052734 2.95458984 C6.86932165 11.04179011 8.843349 19.25712783 10.625 27.625 C10.85428192 28.68814423 10.85428192 28.68814423 11.0881958 29.77276611 C13.31782342 40.14482174 15.25697969 50.40103376 16 61 C16.05349609 61.71188477 16.10699219 62.42376953 16.16210938 63.15722656 C17.28320646 78.39755222 17.14655333 93.54859828 16.625 108.8125 C16.59422363 109.83802979 16.56344727 110.86355957 16.53173828 111.92016602 C15.82074193 130.2688871 15.82074193 130.2688871 12 136 C11.34 136 10.68 136 10 136 C10.00666183 135.11955521 10.01332367 134.23911041 10.02018738 133.33198547 C10.08090633 124.93563857 10.12627783 116.53936794 10.15543652 108.14284992 C10.17093236 103.82861595 10.19186659 99.51456699 10.22631836 95.20043945 C10.52611489 67.95889562 10.52611489 67.95889562 7 41 C6.86981476 40.33124847 6.73962952 39.66249695 6.60549927 38.97348022 C5.80151934 34.85674644 4.89417497 30.77110746 3.9375 26.6875 C3.68162109 25.56150391 3.42574219 24.43550781 3.16210938 23.27539062 C2.10175748 18.63328452 1.01102767 14.00305284 -0.171875 9.390625 C-0.8993222 6.41220909 -1.27647651 4.0412416 -1 1 C-0.67 0.67 -0.34 0.34 0 0 Z " fill="#48BDAA" transform="translate(365,404)"/>
<path d="M0 0 C0.99 0.33 1.98 0.66 3 1 C5.16055996 7.5279776 5.77057554 14.31207634 6.5 21.125 C6.62745605 22.3123877 6.75491211 23.49977539 6.88623047 24.72314453 C10.23392737 56.97163966 10.93244122 89.33567946 11.0859375 121.73828125 C11.09291656 122.54371872 11.09989563 123.34915619 11.10708618 124.17900085 C11.11646591 129.76706818 11.11646591 129.76706818 10 132 C9.01 131.67 8.02 131.34 7 131 C2.35505362 121.71010723 4.77489161 105.1479717 4.61212158 94.92428589 C4.1866447 69.31429336 2.83041491 43.94717075 -0.03466797 18.48413086 C-0.68611544 12.62236125 -1.2701041 6.89964223 -1 1 C-0.67 0.67 -0.34 0.34 0 0 Z " fill="#49C0AD" transform="translate(274,413)"/>
<path d="M0 0 C1.32 0.33 2.64 0.66 4 1 C9.97997959 17.79083455 10.50379599 32.37176947 9 50 C8.82862063 52.45567302 8.65805828 54.91140318 8.48828125 57.3671875 C5.1059856 101.16577544 5.1059856 101.16577544 -4 114 C-4.66 114 -5.32 114 -6 114 C-6.59281124 105.52987401 -4.75598734 98.15279275 -2.625 90 C0.61730663 77.04360636 2.27625499 64.37237395 2.84716797 51.01806641 C2.9960165 48.07866464 3.23520269 45.1610954 3.50390625 42.23046875 C4.48267622 30.46778768 3.28669926 20.6562556 0.03125 9.30859375 C-0.91296288 5.88288972 -1.18642203 3.45333556 0 0 Z " fill="#49BFAC" transform="translate(238,439)"/>
<path d="M0 0 C2.54481859 0.98286313 3.7689718 1.60250703 5.16015625 3.99609375 C11.94095264 22.34240434 13.28910649 39.93552263 13.5625 59.3125 C13.60685209 62.10474308 13.65379994 64.89689011 13.70530701 67.68901062 C13.73655822 69.40867135 13.76364585 71.12841549 13.78553772 72.84822083 C13.87111297 77.87051991 14.22167733 82.80726794 14.78036499 87.79957581 C15.07463995 90.74778399 15.09693001 93.66401922 15.0625 96.625 C15.05347656 97.64851562 15.04445312 98.67203125 15.03515625 99.7265625 C15.02355469 100.47679687 15.01195312 101.22703125 15 102 C13.68 102 12.36 102 11 102 C5.06482409 90.12964817 7.63199909 70.70102245 7.54370117 57.74072266 C7.40576029 40.65121176 5.25549944 24.83762152 0.76953125 8.35546875 C0.09434563 5.41138524 -0.16561602 2.99822111 0 0 Z " fill="#49BFAC" transform="translate(176,430)"/>
<path d="M0 0 C0.66 0.33 1.32 0.66 2 1 C-0.64 3.64 -3.28 6.28 -6 9 C-6 6 -6 6 -3.5625 3.375 C-2.716875 2.59125 -1.87125 1.8075 -1 1 C-0.67 0.67 -0.34 0.34 0 0 Z " fill="#41AC9B" transform="translate(383,157)"/>
<path d="M0 0 C4.29 0.33 8.58 0.66 13 1 C13 1.33 13 1.66 13 2 C7.06 2.495 7.06 2.495 1 3 C0.67 2.01 0.34 1.02 0 0 Z " fill="#153B37" transform="translate(397,138)"/>
</svg>
